inDegrees=yes
name=ik_coleta1_trike_mov
DataType=double
version=3
OpenSimVersion=4.4-2022-07-23-0e9fedc
endheader
time	pelvis_tilt	pelvis_tx	pelvis_ty	hip_flexion_r	knee_angle_r	ankle_angle_r	hip_flexion_l	knee_angle_l	ankle_angle_l	lumbar_extension	gearToGround_coord_0	rightPedalToGear_coord_0	leftPedalToGear_coord_0
25.75045990943909	69.49201092725676	-0.7	0.0500000000000003	53.99201092725541	-37.02548491551416	-1.039076492892845e-12	80.38799999999991	-84.66000000000004	5.05043721578303e-13	2.071017320375504e-12	0	-114.0000000000003	-139.067795130823
25.754469871521	68.93964164386021	-0.7	0.0500000000000003	53.43964164385889	-35.92255390385653	-1.039076492892845e-12	80.38799999999991	-84.66000000000004	5.05043721578303e-13	2.071017320375504e-12	0	-114.0000000000003	-139.067795130823
25.7634859085083	68.11940094232649	-0.7	0.0500000000000003	52.61940094232516	-34.28293739135941	-1.039076492892845e-12	80.38799999999991	-84.66000000000004	5.05043721578303e-13	2.071017320375504e-12	0	-114.0000000000003	-139.067795130823
25.76846098899841	68.12069232282983	-0.7	0.0500000000000003	52.62069232282852	-35.36472269474761	-1.039076492892845e-12	80.38799999999991	-84.66000000000004	5.05043721578303e-13	2.071017320375504e-12	0	-114.0000000000003	-139.067795130823
25.78045892715454	68.12067623321566	-0.7	0.0500000000000003	52.62067623321439	-35.84776287782491	-1.039076492892845e-12	80.38799999999991	-84.66000000000004	5.05043721578303e-13	2.071017320375504e-12	0	-114.0000000000003	-139.067795130823
25.78645873069763	67.62075788850258	-0.7	0.0500000000000003	52.12075788850132	-34.84961771851525	-1.039076492892845e-12	80.38799999999991	-84.66000000000004	5.05043721578303e-13	2.071017320375504e-12	0	-114.0000000000003	-139.067795130823
25.79046392440796	67.62153029245337	-0.7	0.0500000000000003	52.12153029245214	-35.40463495949545	-1.039076492892845e-12	80.38799999999991	-84.66000000000004	5.05043721578303e-13	2.071017320375504e-12	0	-114.0000000000003	-139.067795130823
25.80548596382141	67.05168343915871	-0.7	0.0500000000000003	51.55168343915744	-34.26682102081572	-1.039076492892845e-12	80.38799999999991	-84.66000000000004	5.05043721578303e-13	2.071017320375504e-12	0	-114.0000000000003	-139.067795130823
25.81446504592896	66.80413835380718	-0.7	0.0500000000000003	51.30413835380595	-33.77074994222978	-1.039076492892845e-12	80.38799999999991	-84.66000000000004	5.05043721578303e-13	2.071017320375504e-12	0	-114.0000000000003	-139.067795130823
25.81749081611633	66.80454761802754	-0.7	0.0500000000000003	51.30454761802636	-34.27531939260586	-1.039076492892845e-12	80.38799999999991	-84.66000000000004	5.05043721578303e-13	2.071017320375504e-12	0	-114.0000000000003	-139.067795130823
25.82349300384521	65.90535819062454	-0.7	0.0500000000000003	50.40535819062335	-32.47985918368729	-1.039076492892845e-12	80.38799999999991	-84.66000000000004	5.05043721578303e-13	2.071017320375504e-12	0	-114.0000000000003	-139.067795130823
25.82946610450745	65.90672556594134	-0.7	0.0500000000000003	50.40672556594013	-33.06791648134302	-1.039076492892845e-12	80.38799999999991	-84.66000000000004	5.05043721578303e-13	2.071017320375504e-12	0	-114.0000000000003	-139.067795130823
25.8374650478363	65.66865872093533	-0.7	0.0500000000000003	50.16865872093414	-32.59259778069384	-1.039076492892845e-12	80.38799999999991	-84.66000000000004	5.05043721578303e-13	2.071017320375504e-12	0	-114.0000000000003	-139.067795130823
25.84146094322205	65.66904712216339	-0.7	0.0500000000000003	50.16904712216221	-33.22056029302259	-1.039076492892845e-12	80.38799999999991	-84.66000000000004	5.05043721578303e-13	2.071017320375504e-12	0	-114.0000000000003	-139.067795130823
25.84746289253235	65.46847358401538	-0.7	0.0500000000000003	49.9684735840142	-32.82018201794553	-1.039076492892845e-12	80.38799999999991	-84.66000000000004	5.05043721578303e-13	2.071017320375504e-12	0	-114.0000000000003	-139.067795130823
25.85245490074158	65.46882543906024	-0.7	0.0500000000000003	49.96882543905901	-33.78668016498077	-1.039076492892845e-12	80.38799999999991	-84.66000000000004	5.05043721578303e-13	2.071017320375504e-12	0	-114.0000000000003	-139.067795130823
25.85649991035461	65.26990138600759	-0.7	0.0500000000000003	49.76990138600635	-33.38968969190455	-1.039076492892845e-12	80.38799999999991	-84.66000000000004	5.05043721578303e-13	2.071017320375504e-12	0	-114.0000000000003	-139.067795130823
25.8654568195343	65.10368904447239	-0.7	0.0500000000000003	49.60368904447115	-33.05717546197427	-1.039076492892845e-12	80.38799999999991	-84.66000000000004	5.05043721578303e-13	2.071017320375504e-12	0	-114.0000000000003	-139.067795130823
25.87948703765869	65.10398048719652	-0.7	0.0500000000000003	49.60398048719525	-33.75680719370612	-1.039076492892845e-12	80.38799999999991	-84.66000000000004	5.05043721578303e-13	2.071017320375504e-12	0	-114.0000000000003	-139.067795130823
25.88346195220947	64.8063392817305	-0.7	0.0500000000000003	49.30633928172918	-33.16262432838779	-1.039076492892845e-12	80.38799999999991	-84.66000000000004	5.05043721578303e-13	2.071017320375504e-12	0	-114.0000000000003	-139.067795130823
25.88846373558044	64.80686084357082	-0.7	0.0500000000000003	49.30686084356949	-34.57248996827242	-1.039076492892845e-12	80.38799999999991	-84.66000000000004	5.05043721578303e-13	2.071017320375504e-12	0	-114.0000000000003	-139.067795130823
25.8934531211853	64.60673505508277	-0.7	0.0500000000000003	49.10673505508139	-34.17321003180994	-1.039076492892845e-12	80.38799999999991	-84.66000000000004	5.05043721578303e-13	2.071017320375504e-12	0	-114.0000000000003	-139.067795130823
25.90246081352234	64.60707416665352	-0.7	0.0500000000000003	49.10707416665215	-34.94588109110407	-1.039076492892845e-12	80.38799999999991	-84.66000000000004	5.05043721578303e-13	2.071017320375504e-12	0	-114.0000000000003	-139.067795130823
25.9094569683075	64.60708157576653	-0.7	0.0500000000000003	49.10708157576518	-35.75733640846507	-1.039076492892845e-12	80.38799999999991	-84.66000000000004	5.05043721578303e-13	2.071017320375504e-12	0	-114.0000000000003	-139.067795130823
25.91545796394348	64.50165335037231	-0.7	0.0500000000000003	49.00165335037101	-35.54703260086365	-1.039076492892845e-12	80.38799999999991	-84.66000000000004	5.05043721578303e-13	2.071017320375504e-12	0	-114.0000000000003	-139.067795130823
25.9225070476532	64.50198725479156	-0.7	0.0500000000000003	49.00198725479027	-38.39561449235204	-1.039076492892845e-12	80.38799999999991	-84.66000000000004	5.05043721578303e-13	2.071017320375504e-12	0	-114.0000000000003	-139.067795130823
25.92946100234985	64.24797213969227	-0.7	0.0500000000000003	48.74797213969102	-37.88919685450443	-1.039076492892845e-12	80.38799999999991	-84.66000000000004	5.05043721578303e-13	2.071017320375504e-12	0	-114.0000000000003	-139.067795130823
25.93546605110168	64.24840058943794	-0.7	0.0500000000000003	48.74840058943669	-38.7918113134292	-1.039076492892845e-12	80.38799999999991	-84.66000000000004	5.05043721578303e-13	2.071017320375504e-12	0	-114.0000000000003	-139.067795130823
25.93948698043823	63.94519153918935	-0.7	0.0500000000000003	48.44519153918806	-38.18658553613434	-1.039076492892845e-12	80.38799999999991	-84.66000000000004	5.05043721578303e-13	2.071017320375504e-12	0	-114.0000000000003	-139.067795130823
25.95248985290527	63.9457596426066	-0.7	0.0500000000000003	48.4457596426053	-39.98641480744396	-1.039076492892845e-12	80.38799999999991	-84.66000000000004	5.05043721578303e-13	2.071017320375504e-12	0	-114.0000000000003	-139.067795130823
25.96045899391174	63.94573613689136	-0.7	0.0500000000000003	48.44573613689007	-41.28186409790554	-1.039076492892845e-12	80.38799999999991	-84.66000000000004	5.05043721578303e-13	2.071017320375504e-12	0	-114.0000000000003	-139.067795130823
25.97249412536621	63.84472989941348	-0.7	0.0500000000000003	48.34472989941223	-41.08058839027179	-1.039076492892845e-12	80.38799999999991	-84.66000000000004	5.05043721578303e-13	2.071017320375504e-12	0	-114.0000000000003	-139.067795130823
25.97845387458801	63.84499270874942	-0.7	0.0500000000000003	48.34499270874815	-42.7311326497672	-1.039076492892845e-12	80.38799999999991	-84.66000000000004	5.05043721578303e-13	2.071017320375504e-12	0	-114.0000000000003	-139.067795130823
25.983473777771	63.84499270874942	-0.7	0.0500000000000003	48.34499270874815	-42.7311326497672	-1.039076492892845e-12	80.38799999999991	-84.66000000000004	5.05043721578303e-13	2.071017320375504e-12	0	-114.0000000000003	-139.067795130823
25.99245381355286	63.84494484559334	-0.7	0.0500000000000003	48.34494484559212	-43.63625572107262	-1.039076492892845e-12	80.38799999999991	-84.66000000000004	5.05043721578303e-13	2.071017320375504e-12	0	-114.0000000000003	-139.067795130823
26.00045680999756	63.81006135557343	-0.7	0.0500000000000003	48.31006135557215	-43.56680203509704	-1.039076492892845e-12	80.38799999999991	-84.66000000000004	5.05043721578303e-13	2.071017320375504e-12	0	-114.0000000000003	-139.067795130823
26.01046991348267	63.81019552692924	-0.7	0.0500000000000003	48.310195526928	-45.40561004391243	-1.039076492892845e-12	80.38799999999991	-84.66000000000004	5.05043721578303e-13	2.071017320375504e-12	0	-114.0000000000003	-139.067795130823
